<?xml version="1.0" encoding="UTF-8" standalone="no"?>
<!-- Created with Inkscape (http://www.inkscape.org/) -->

<svg
   version="1.1"
   id="svg1"
   width="2191.1396"
   height="572.59302"
   viewBox="0 0 2191.1396 572.59302"
   xmlns="http://www.w3.org/2000/svg"
   xmlns:svg="http://www.w3.org/2000/svg">
  <defs
     id="defs1">
    <clipPath
       clipPathUnits="userSpaceOnUse"
       id="clipPath225">
      <path
         d="M 0,616.78 H 1997.182 V 0 H 0 Z"
         transform="translate(-690.95072,-218.2613)"
         id="path225" />
    </clipPath>
    <clipPath
       clipPathUnits="userSpaceOnUse"
       id="clipPath227">
      <path
         d="M 0,616.78 H 1997.182 V 0 H 0 Z"
         transform="translate(-589.02624,-125.8772)"
         id="path227" />
    </clipPath>
    <clipPath
       clipPathUnits="userSpaceOnUse"
       id="clipPath229">
      <path
         d="M 0,616.78 H 1997.182 V 0 H 0 Z"
         transform="translate(-1241.937,-144.69751)"
         id="path229" />
    </clipPath>
    <clipPath
       clipPathUnits="userSpaceOnUse"
       id="clipPath231">
      <path
         d="M 0,616.78 H 1997.182 V 0 H 0 Z"
         transform="translate(-1359.2917,-125.5969)"
         id="path231" />
    </clipPath>
    <clipPath
       clipPathUnits="userSpaceOnUse"
       id="clipPath233">
      <path
         d="M 0,616.78 H 1997.182 V 0 H 0 Z"
         transform="translate(-1511.5665,-121.9471)"
         id="path233" />
    </clipPath>
    <clipPath
       clipPathUnits="userSpaceOnUse"
       id="clipPath235">
      <path
         d="M 0,616.78 H 1997.182 V 0 H 0 Z"
         id="path235" />
    </clipPath>
    <clipPath
       clipPathUnits="userSpaceOnUse"
       id="clipPath237">
      <path
         d="M 0,616.78 H 1997.182 V 0 H 0 Z"
         id="path237" />
    </clipPath>
    <clipPath
       clipPathUnits="userSpaceOnUse"
       id="clipPath239">
      <path
         d="M 0,616.78 H 1997.182 V 0 H 0 Z"
         id="path239" />
    </clipPath>
    <clipPath
       clipPathUnits="userSpaceOnUse"
       id="clipPath241">
      <path
         d="M 0,616.78 H 1997.182 V 0 H 0 Z"
         transform="translate(-737.62074,-121.7375)"
         id="path241" />
    </clipPath>
    <clipPath
       clipPathUnits="userSpaceOnUse"
       id="clipPath243">
      <path
         d="M 0,616.78 H 1997.182 V 0 H 0 Z"
         transform="translate(-772.19342,-157.172)"
         id="path243" />
    </clipPath>
    <clipPath
       clipPathUnits="userSpaceOnUse"
       id="clipPath245">
      <path
         d="M 0,616.78 H 1997.182 V 0 H 0 Z"
         transform="translate(-896.83345,-138.9433)"
         id="path245" />
    </clipPath>
    <clipPath
       clipPathUnits="userSpaceOnUse"
       id="clipPath247">
      <path
         d="M 0,616.78 H 1997.182 V 0 H 0 Z"
         transform="translate(-1440.8052,-131.9675)"
         id="path247" />
    </clipPath>
    <clipPath
       clipPathUnits="userSpaceOnUse"
       id="clipPath249">
      <path
         d="M 0,616.78 H 1997.182 V 0 H 0 Z"
         transform="translate(-1014.6379,-132.2699)"
         id="path249" />
    </clipPath>
    <clipPath
       clipPathUnits="userSpaceOnUse"
       id="clipPath251">
      <path
         d="M 0,616.78 H 1997.182 V 0 H 0 Z"
         transform="translate(-1126.1917,-157.17781)"
         id="path251" />
    </clipPath>
    <clipPath
       clipPathUnits="userSpaceOnUse"
       id="clipPath253">
      <path
         d="M 0,616.78 H 1997.182 V 0 H 0 Z"
         transform="translate(-387.77851,-374.13121)"
         id="path253" />
    </clipPath>
    <clipPath
       clipPathUnits="userSpaceOnUse"
       id="clipPath255">
      <path
         d="M 0,616.78 H 1997.182 V 0 H 0 Z"
         transform="translate(-478.36899,-240.04621)"
         id="path255" />
    </clipPath>
    <clipPath
       clipPathUnits="userSpaceOnUse"
       id="clipPath257">
      <path
         d="M 0,616.78 H 1997.182 V 0 H 0 Z"
         transform="translate(-869.24912,-419.48101)"
         id="path257" />
    </clipPath>
    <clipPath
       clipPathUnits="userSpaceOnUse"
       id="clipPath259">
      <path
         d="M 0,616.78 H 1997.182 V 0 H 0 Z"
         transform="translate(-1194.7201,-293.26921)"
         id="path259" />
    </clipPath>
    <clipPath
       clipPathUnits="userSpaceOnUse"
       id="clipPath261">
      <path
         d="M 0,616.78 H 1997.182 V 0 H 0 Z"
         transform="translate(-1318.5912,-187.1638)"
         id="path261" />
    </clipPath>
    <clipPath
       clipPathUnits="userSpaceOnUse"
       id="clipPath263">
      <path
         d="M 0,616.78 H 1997.182 V 0 H 0 Z"
         transform="translate(-544.79371,-292.68101)"
         id="path263" />
    </clipPath>
    <clipPath
       clipPathUnits="userSpaceOnUse"
       id="clipPath265">
      <path
         d="M 0,616.78 H 1997.182 V 0 H 0 Z"
         transform="translate(-1734.1785,-419.88641)"
         id="path265" />
    </clipPath>
  </defs>
  <g
     id="g222"
     transform="translate(-8284.6056,-124.8904)">
    <path
       id="path224"
       d="m 0,0 c 0.047,-0.029 0.116,-0.053 0.188,-0.053 0.108,0 0.17,0.057 0.17,0.138 0,0.076 -0.044,0.12 -0.153,0.162 -0.133,0.047 -0.215,0.115 -0.215,0.231 0,0.126 0.105,0.22 0.263,0.22 0.084,0 0.143,-0.019 0.18,-0.04 L 0.403,0.572 C 0.378,0.587 0.323,0.611 0.249,0.611 0.139,0.611 0.097,0.545 0.097,0.489 0.097,0.413 0.146,0.376 0.258,0.333 0.396,0.279 0.466,0.213 0.466,0.094 c 0,-0.125 -0.094,-0.234 -0.285,-0.234 -0.078,0 -0.164,0.023 -0.207,0.052 z"
       style="fill:#ffffff;fill-opacity:1;fill-rule:nonzero;stroke:none"
       transform="matrix(1.3333333,0,0,-1.3333333,8969.9876,531.35827)"
       clip-path="url(#clipPath225)" />
    <path
       id="path226"
       d="m 0,0 c 0,-5.01 -0.845,-9.331 -2.511,-12.836 -1.136,-2.384 -2.687,-4.05 -4.741,-5.093 -2.194,-1.116 -5.627,-1.681 -10.206,-1.681 h -9.683 v 38.43 h 9.489 c 5.206,0 7.743,-0.527 8.953,-0.968 2.484,-0.907 4.49,-2.703 6.133,-5.492 C -0.863,9.472 0,5.313 0,0 m 11.396,14.129 c -1.543,4.09 -3.744,7.543 -6.541,10.263 -2.849,2.771 -6.26,4.704 -10.128,5.74 -2.874,0.783 -6.86,1.163 -12.185,1.163 h -23.12 v -63.379 h 24.05 c 6.452,0 11.811,1.064 15.928,3.162 4.248,2.167 7.743,5.832 10.39,10.897 2.582,4.942 3.891,10.98 3.891,17.946 0,5.409 -0.769,10.19 -2.285,14.208"
       style="fill:#ffffff;fill-opacity:1;fill-rule:nonzero;stroke:none"
       transform="matrix(1.3333333,0,0,-1.3333333,8834.0883,654.53707)"
       clip-path="url(#clipPath227)" />
    <path
       id="path228"
       d="m 0,0 h 9.489 c 5.205,0 7.743,-0.527 8.953,-0.968 2.484,-0.907 4.49,-2.704 6.134,-5.491 1.702,-2.891 2.565,-7.05 2.565,-12.361 0,-5.013 -0.846,-9.333 -2.511,-12.837 -1.136,-2.383 -2.687,-4.049 -4.74,-5.092 -2.195,-1.116 -5.629,-1.681 -10.206,-1.681 H 0 Z m 38.537,-4.692 c -1.545,4.094 -3.746,7.547 -6.54,10.263 -2.847,2.77 -6.258,4.702 -10.128,5.741 -2.874,0.782 -6.86,1.162 -12.185,1.162 h -23.121 v -63.378 h 24.051 c 6.452,0 11.81,1.063 15.929,3.163 4.246,2.166 7.741,5.832 10.39,10.896 2.581,4.941 3.889,10.979 3.889,17.945 0,5.411 -0.769,10.191 -2.285,14.208"
       style="fill:#ffffff;fill-opacity:1;fill-rule:nonzero;stroke:none"
       transform="matrix(1.3333333,0,0,-1.3333333,9704.636,629.44333)"
       clip-path="url(#clipPath229)" />
    <path
       id="path230"
       d="m 0,0 c 0,-6.642 -1.654,-11.673 -4.915,-14.949 -3.305,-3.317 -7.299,-4.931 -12.209,-4.931 -4.794,0 -8.746,1.601 -12.083,4.892 -3.327,3.282 -4.944,7.872 -4.944,14.035 0,7.181 1.624,12.47 4.828,15.72 3.239,3.286 7.276,4.884 12.344,4.884 3.143,0 5.956,-0.733 8.596,-2.242 2.598,-1.485 4.479,-3.39 5.748,-5.816 C -0.886,8.225 0,4.325 0,0 m 9.47,16.767 c -2.718,4.799 -6.467,8.514 -11.141,11.042 -4.618,2.499 -9.785,3.766 -15.357,3.766 -8.642,0 -15.982,-2.846 -21.818,-8.457 -5.865,-5.641 -8.839,-13.706 -8.839,-23.975 0,-8.213 2.63,-15.336 7.813,-21.168 5.754,-6.489 13.424,-9.779 22.796,-9.779 9.291,0 16.934,3.201 22.716,9.514 5.238,5.715 7.894,13.156 7.894,22.119 0,6.478 -1.367,12.177 -4.064,16.938"
       style="fill:#ffffff;fill-opacity:1;fill-rule:nonzero;stroke:none"
       transform="matrix(1.3333333,0,0,-1.3333333,9861.1089,654.9108)"
       clip-path="url(#clipPath231)" />
    <path
       id="path232"
       d="m 0,0 5.811,15.086 c 0.691,1.818 1.31,3.655 1.857,5.501 0.688,-1.967 1.485,-4.13 2.389,-6.481 L 15.434,0 Z M 13.16,35.225 H 2.135 l -24.831,-63.379 h 12.38 l 6.602,18.103 h 23.047 l 7.062,-18.103 h 13.13 z"
       style="fill:#ffffff;fill-opacity:1;fill-rule:nonzero;stroke:none"
       transform="matrix(1.3333333,0,0,-1.3333333,10064.142,659.7772)"
       clip-path="url(#clipPath233)" />
    <path
       id="path234"
       d="m 638.582,93.793 h 12.907 v 63.379 h -12.907 z"
       style="fill:#ffffff;fill-opacity:1;fill-rule:nonzero;stroke:none"
       transform="matrix(1.3333333,0,0,-1.3333333,8048.72,822.37333)"
       clip-path="url(#clipPath235)" />
    <path
       id="path236"
       d="m 949.407,93.793 h 12.907 v 63.379 h -12.907 z"
       style="fill:#ffffff;fill-opacity:1;fill-rule:nonzero;stroke:none"
       transform="matrix(1.3333333,0,0,-1.3333333,8048.72,822.37333)"
       clip-path="url(#clipPath237)" />
    <path
       id="path238"
       d="m 1177.12,93.793 h 12.907 v 63.379 h -12.907 z"
       style="fill:#ffffff;fill-opacity:1;fill-rule:nonzero;stroke:none"
       transform="matrix(1.3333333,0,0,-1.3333333,8048.72,822.37333)"
       clip-path="url(#clipPath239)" />
    <path
       id="path240"
       d="m 0,0 c -1.433,2.309 -3.464,4.158 -6.037,5.495 -2.548,1.323 -7.962,3.037 -16.546,5.24 -6.069,1.613 -9.753,2.791 -10.941,3.498 -1.902,1.154 -2.826,2.678 -2.826,4.659 0,2.029 0.974,3.658 2.979,4.98 2.059,1.356 5.277,2.045 9.566,2.045 7.517,0 11.599,-3.014 12.481,-9.214 l 0.087,-0.605 11.211,1.511 -0.105,0.628 c -0.708,4.191 -2.01,7.472 -3.872,9.75 -1.861,2.273 -4.568,4.106 -8.048,5.447 -3.451,1.328 -7.5,2 -12.033,2 -7.22,0 -12.965,-1.645 -17.074,-4.892 -4.154,-3.28 -6.26,-7.606 -6.26,-12.857 0,-3.056 0.778,-5.823 2.313,-8.224 1.529,-2.398 3.707,-4.336 6.472,-5.76 2.743,-1.415 7.997,-3.08 16.066,-5.091 5.403,-1.319 8.838,-2.424 10.209,-3.28 1.904,-1.2 2.829,-2.824 2.829,-4.967 0,-2.54 -1.104,-4.585 -3.376,-6.249 -2.298,-1.686 -5.629,-2.541 -9.898,-2.541 -4.263,0 -7.718,0.989 -10.269,2.938 -2.527,1.934 -4.098,4.949 -4.669,8.963 l -0.088,0.616 -11.424,-1.758 0.113,-0.622 c 2.357,-13.042 11.021,-19.654 25.75,-19.654 7.817,0 14.087,1.817 18.634,5.403 4.591,3.621 6.919,8.426 6.919,14.282 C 2.163,-5.094 1.435,-2.315 0,0"
       style="fill:#ffffff;fill-opacity:1;fill-rule:nonzero;stroke:none"
       transform="matrix(1.3333333,0,0,-1.3333333,9032.2143,660.05667)"
       clip-path="url(#clipPath241)" />
    <path
       id="path242"
       d="M 0,0 V -9.831 H 21.855 V -63.379 H 33.298 V -9.831 H 55.265 V 0 Z"
       style="fill:#ffffff;fill-opacity:1;fill-rule:nonzero;stroke:none"
       transform="matrix(1.3333333,0,0,-1.3333333,9078.3112,612.81067)"
       clip-path="url(#clipPath243)" />
    <path
       id="path244"
       d="M 0,0 C 0,-1.658 -0.415,-3.056 -1.269,-4.277 -2.133,-5.509 -3.28,-6.392 -4.775,-6.975 -6.396,-7.607 -8.908,-7.926 -12.241,-7.926 H -26.706 V 7.565 h 16.301 c 3.615,0 6.313,-0.708 8.02,-2.102 C -0.78,4.15 0,2.362 0,0 m 6.362,-25.871 c -1.815,2.899 -3.947,5.567 -6.337,7.933 -0.312,0.307 -0.652,0.611 -1.023,0.91 3.371,1.055 6.136,2.645 8.253,4.753 3.174,3.162 4.784,7.309 4.784,12.326 0,3.777 -0.938,7.16 -2.787,10.056 -1.859,2.912 -4.29,5.03 -7.224,6.297 -2.849,1.228 -7.01,1.825 -12.723,1.825 H -38.503 V -45.15 h 11.797 v 26.316 h 6.822 c 2.292,0 4.055,-0.242 5.234,-0.718 1.141,-0.464 2.383,-1.427 3.694,-2.863 1.432,-1.568 3.642,-4.745 6.572,-9.449 L 3.965,-45.15 h 14.524 z"
       style="fill:#ffffff;fill-opacity:1;fill-rule:nonzero;stroke:none"
       transform="matrix(1.3333333,0,0,-1.3333333,9244.4979,637.1156)"
       clip-path="url(#clipPath245)" />
    <path
       id="path246"
       d="m 0,0 c -1.619,-0.631 -4.13,-0.95 -7.464,-0.95 h -14.465 v 15.49 h 16.302 c 3.615,0 6.313,-0.707 8.019,-2.102 C 3.997,11.125 4.777,9.338 4.777,6.976 4.777,5.319 4.361,3.919 3.507,2.7 2.643,1.466 1.496,0.583 0,0 m 11.139,-18.894 c -1.82,2.903 -3.951,5.571 -6.337,7.932 -0.312,0.307 -0.653,0.61 -1.023,0.91 3.371,1.055 6.136,2.645 8.255,4.753 3.172,3.163 4.782,7.309 4.782,12.326 0,3.777 -0.937,7.16 -2.787,10.056 -1.861,2.912 -4.29,5.03 -7.223,6.297 -2.849,1.228 -7.011,1.824 -12.724,1.824 h -27.809 v -63.378 h 11.798 v 26.316 h 6.822 c 2.292,0 4.055,-0.242 5.234,-0.718 1.141,-0.464 2.384,-1.428 3.694,-2.865 1.434,-1.568 3.643,-4.744 6.572,-9.447 l 8.348,-13.286 h 14.526 z"
       style="fill:#ffffff;fill-opacity:1;fill-rule:nonzero;stroke:none"
       transform="matrix(1.3333333,0,0,-1.3333333,9969.7935,646.41667)"
       clip-path="url(#clipPath247)" />
    <path
       id="path248"
       d="m 0,0 v 13.793 h 9.608 c 4.963,0 7.166,-0.383 8.136,-0.703 1.208,-0.401 2.151,-1.106 2.88,-2.154 0.744,-1.072 1.107,-2.426 1.107,-4.14 0,-1.797 -0.391,-3.191 -1.162,-4.143 C 19.753,1.648 18.581,0.939 17.006,0.493 16.178,0.268 14.382,0 10.526,0 Z m 24.146,-19.198 c 0,-2.005 -0.437,-3.59 -1.335,-4.848 -0.887,-1.243 -2.182,-2.123 -3.959,-2.692 -0.897,-0.286 -2.741,-0.629 -6.44,-0.629 H 0 v 16.259 h 11.396 c 4.601,0 6.888,-0.509 7.995,-0.934 1.484,-0.571 2.625,-1.443 3.488,-2.664 0.853,-1.205 1.267,-2.675 1.267,-4.492 m 8.689,10.363 c -1.406,1.789 -3.149,3.251 -5.208,4.371 1.32,1.086 2.439,2.332 3.347,3.728 1.631,2.509 2.458,5.36 2.458,8.471 0,3.337 -0.949,6.431 -2.822,9.197 -1.857,2.732 -4.28,4.777 -7.205,6.076 -2.874,1.274 -6.58,1.894 -11.329,1.894 h -23.872 v -63.379 h 24.183 c 5.447,0 9.658,0.654 12.875,2.001 3.304,1.385 5.983,3.634 7.96,6.685 1.966,3.036 2.963,6.591 2.963,10.563 0,4.071 -1.127,7.567 -3.35,10.393"
       style="fill:#ffffff;fill-opacity:1;fill-rule:nonzero;stroke:none"
       transform="matrix(1.3333333,0,0,-1.3333333,9401.5705,646.01347)"
       clip-path="url(#clipPath249)" />
    <path
       id="path250"
       d="m 0,0 v -35.642 c 0,-8.236 -1.593,-11.636 -2.93,-13.04 -1.912,-2.008 -5.221,-3.026 -9.837,-3.026 -2.738,0 -5.056,0.514 -6.892,1.526 -1.736,0.958 -2.948,2.315 -3.711,4.148 -0.579,1.389 -1.27,4.321 -1.27,10.392 V 0 h -12.267 v -35.681 c 0,-10.184 2.047,-17.191 6.258,-21.419 4.153,-4.17 10.351,-6.285 18.422,-6.285 5.707,0 10.521,1.161 14.306,3.45 3.891,2.351 6.615,5.616 8.099,9.704 1.386,3.826 2.09,8.722 2.09,14.55 V 0 Z"
       style="fill:#ffffff;fill-opacity:1;fill-rule:nonzero;stroke:none"
       transform="matrix(1.3333333,0,0,-1.3333333,9550.3089,612.80293)"
       clip-path="url(#clipPath251)" />
    <path
       id="path252"
       d="m 0,0 c -1.626,0.078 -37.549,-6.193 -37.549,-6.193 l -0.387,-0.155 c 0,0 -3.561,-0.852 -3.871,-3.019 -0.309,-2.168 3.941,-22.229 4.723,-22.819 1.49,-1.123 3.213,-2.691 5.38,-2.304 2.168,0.387 35.42,6.232 35.42,6.232 0,0 1.935,1.239 2.555,2.942 0.619,1.704 -3.175,22.452 -3.175,22.452 0,0 -1.471,2.787 -3.096,2.864"
       style="fill:#ffffff;fill-opacity:1;fill-rule:nonzero;stroke:none"
       transform="matrix(1.3333333,0,0,-1.3333333,8565.758,323.53173)"
       clip-path="url(#clipPath253)" />
    <path
       id="path254"
       d="m 0,0 c -0.734,-0.452 -1.555,-0.733 -2.409,-0.852 l -122.269,-16.959 c -1.073,-0.149 -2.123,-0.016 -3.076,0.338 0.221,2.327 0.265,4.698 0.115,7.099 -0.216,3.453 -0.83,6.791 -1.776,9.986 19.299,2.791 93.602,13.525 111.211,15.944 C 2.08,18.343 3.319,14.782 4.403,8.434 5.177,3.9 1.924,1.183 0,0 m -178.86,33.458 c -5.091,20.552 -28.557,168.679 -28.557,168.679 0,0 -1.136,4.168 0,4.413 0,0 45.987,9.987 47.149,8.826 1.161,-1.162 2.786,-16.723 5.573,-17.42 2.789,-0.696 20.207,0.233 21.833,2.555 1.626,2.323 -2.323,19.045 -2.323,19.045 l 50.632,9.523 16.491,-94.994 33.445,6.736 c 0,0 1.703,0.155 2.942,-6.736 1.239,-6.89 19.974,-106.606 19.974,-106.606 0,0 0.465,-2.942 -3.561,-4.181 -3.537,-1.088 -93.972,-15.444 -115.868,-18.912 -7.606,17.954 -26.459,30.128 -47.73,29.072 m 4.655,-84.888 c -22.012,-1.375 -40.92,14.521 -42.232,35.506 -1.311,20.984 15.471,39.111 37.483,40.487 22.012,1.376 40.921,-14.52 42.232,-35.505 1.312,-20.985 -15.47,-39.112 -37.483,-40.488 M 4.816,283.066 h -293.884 c -6.841,0 -12.387,-5.546 -12.387,-12.387 v -20.031 c 4.392,5.238 15.425,0.835 19.097,0.573 4.335,-0.31 49.548,-6.658 57.755,-9.91 8.206,-3.251 8.361,-19.045 8.361,-19.045 l 32.246,-189.315 c -5.4,-0.811 -10.558,-2.465 -15.314,-4.876 -2.929,17.525 -30.185,180.609 -31.797,189.546 -1.703,9.445 -3.406,11.303 -5.729,12.232 -2.322,0.929 -33.6,3.871 -45.522,5.574 -8.373,1.196 -15.829,2.606 -19.097,5.942 v -273.4 c 0,-6.841 5.546,-12.387 12.387,-12.387 h 75.503 c 8.989,-9.839 22.179,-15.983 36.689,-15.983 1.067,0 2.145,0.034 3.225,0.101 13.482,0.843 25.379,6.855 33.71,15.882 H 4.816 c 6.841,0 12.387,5.546 12.387,12.387 v 302.71 c 0,6.841 -5.546,12.387 -12.387,12.387"
       style="fill:#ffffff;fill-opacity:1;fill-rule:nonzero;stroke:none"
       transform="matrix(1.3333333,0,0,-1.3333333,8686.5453,502.31173)"
       clip-path="url(#clipPath255)" />
    <path
       id="path256"
       d="m 0,0 v 52.097 c 0,0.17 0.023,0.335 0.074,0.497 0.376,1.215 2.185,6.497 5.268,6.702 3.484,0.232 72.697,0 72.697,0 0,0 2.555,0.463 3.019,-2.779 0.452,-3.158 0.024,-53.759 10e-4,-56.409 -10e-4,-0.077 0.004,-0.147 0.014,-0.223 0.109,-0.86 0.837,-1.505 1.706,-1.502 7.474,0.019 40.103,0.098 41.131,-0.004 1.161,-0.116 1.045,-4.749 1.045,-4.749 l 0.003,-39.608 c 0,0 0.461,-1.621 -2.906,-1.505 -3.368,0.116 -40.762,-0.006 -40.762,-0.006 0,0 -0.929,0.353 -1.161,-3.121 -0.232,-3.475 0,-111.296 0,-111.296 0,0 -0.542,-9.574 4.877,-13.743 5.42,-4.169 5.42,-5.096 22.607,-5.096 17.187,0 20.284,1.081 20.748,-1.235 0.455,-2.269 0.019,-39.635 0.001,-41.18 -0.001,-0.036 0,-0.068 0.002,-0.104 l 0.13,-2.524 c 0.043,-0.834 -0.517,-1.577 -1.333,-1.763 -5.283,-1.199 -24.443,-5.323 -40.296,-5.85 -18.581,-0.618 -61.781,4.787 -75.484,28.181 -13.704,23.394 -11.845,42.851 -11.381,86.859 0.465,44.009 1.626,69.488 0.697,70.415 -0.929,0.926 0.929,2.316 -7.665,1.853 -8.593,-0.464 -23.458,0 -23.458,0 h -1.296 c -0.952,0 -1.723,0.769 -1.723,1.718 V -4.54 c 0,0.089 -0.009,0.178 -0.022,0.265 -0.085,0.564 -0.288,2.827 1.88,2.962 2.477,0.155 30.194,0 30.194,0 0,0 1.393,0.464 1.393,1.313"
       style="fill:#ffffff;fill-opacity:1;fill-rule:nonzero;stroke:none"
       transform="matrix(1.3333333,0,0,-1.3333333,9207.7188,263.06533)"
       clip-path="url(#clipPath257)" />
    <path
       id="path258"
       d="m 0,0 c -0.31,-7.094 0.82,-32.16 -14.71,-45.959 -10.8,-9.596 -23.197,-9.253 -33.198,-9.253 -10.002,0 -36.015,4.01 -42.208,24.676 -6.194,20.666 -5.629,32.926 -5.629,32.926 0,0 -0.229,37.508 9.732,52.976 9.832,15.268 23.923,19.586 38.555,19.278 14.632,-0.308 28.877,-3.393 38.787,-17.89 C 1.239,42.257 0.31,7.094 0,0 m 35.922,102.096 c -21.846,16.495 -51.716,24.521 -83.38,24.521 -37.251,0 -73.689,-10.463 -96.852,-34.006 -20.306,-20.64 -29.729,-52.334 -29.729,-82.355 0,-25.756 7.258,-56.89 22.607,-75.955 22.948,-28.506 61.765,-39.417 103.645,-40.407 47.63,-1.125 76.283,10.959 99.503,36.397 18.456,20.219 27.407,51.505 27.407,79.965 0,36.247 -14.936,70.499 -43.201,91.84"
       style="fill:#ffffff;fill-opacity:1;fill-rule:nonzero;stroke:none"
       transform="matrix(1.3333333,0,0,-1.3333333,9641.6801,431.34773)"
       clip-path="url(#clipPath259)" />
    <path
       id="path260"
       d="m 0,0 h 72.464 c 0,0 2.633,1.239 3.097,2.013 0.465,0.774 0,66.271 0,66.271 0,0 23.342,21.948 25.084,21.716 1.742,-0.232 60.697,-87.832 60.697,-87.832 0,0 1.316,-2.168 2.826,-2.168 h 87.561 c 0,0 0.697,3.368 -1.742,6.155 -2.439,2.787 -95.69,127.393 -95.69,127.393 0,0 -0.233,2.784 1.626,4.992 1.858,2.208 78.503,81.757 78.503,81.757 v 8.361 4.065 H 153.91 L 83.923,155.458 c 0,0 -9.91,-4.645 -9.91,-0.31 V 325.161 H -2.477 V 3.368 C -2.477,3.368 -3.097,1.51 0,0"
       style="fill:#ffffff;fill-opacity:1;fill-rule:nonzero;stroke:none"
       transform="matrix(1.3333333,0,0,-1.3333333,9806.8415,572.8216)"
       clip-path="url(#clipPath261)" />
    <path
       id="path262"
       d="m 0,0 h 76.443 c 1.79,0 3.361,-1.214 3.779,-2.955 0.428,-1.786 0.827,-4.452 0.827,-8.187 0,-8.061 5.342,-39.939 55.742,-41.069 50.4,-1.131 56.903,20.68 59.226,34.905 2.322,14.224 -10.684,27.757 -34.375,35.808 -23.69,8.05 -92.206,26.542 -118.916,47.642 -26.709,21.099 -39.019,47.177 -35.071,72.544 3.949,25.367 22.607,56.108 84.852,74.441 62.245,18.334 128.516,-6.005 150.194,-24.023 21.677,-18.018 33.754,-46.783 35.303,-58.32 1.548,-11.538 -2.942,-9.325 -5.11,-9.641 -1.955,-0.285 -63.619,-0.056 -75.691,-0.008 -1.653,0.006 -3.122,1.051 -3.661,2.615 -0.343,0.993 -0.557,2.279 -0.39,3.873 0.464,4.425 -4.8,25.13 -25.084,32.084 -20.284,6.954 -56.671,5.373 -67.974,-7.903 C 88.791,138.53 77.333,116.561 115.733,99.492 154.133,82.423 189.978,78.946 223.423,60.217 256.868,41.488 281.195,8.535 278.322,-22.522 275.449,-53.579 259.191,-71.596 242.701,-83.213 226.21,-94.83 178.83,-110.476 128.43,-105.498 78.03,-100.519 48.533,-89.491 30.184,-72.07 17.672,-60.19 2.546,-41.488 -1.17,-26.552 -3.6,-16.788 -3.945,-8.442 -3.892,-3.833 -3.868,-1.704 -2.129,0 0,0"
       style="fill:#ffffff;fill-opacity:1;fill-rule:nonzero;stroke:none"
       transform="matrix(1.3333333,0,0,-1.3333333,8775.1116,432.132)"
       clip-path="url(#clipPath263)" />
    <path
       id="path264"
       d="m 0,0 c 0,0 -2.168,1.394 -4.026,-4.8 -1.858,-6.194 -42.426,-126.348 -42.426,-126.348 0,0 -7.123,-1.858 -7.742,3.406 C -54.813,-122.477 -91.046,0 -91.046,0 h -79.287 v 0.002 h -8.661 V 0 -11.303 -12.399 h 6.016 l 87.197,-215.988 c 0,0 3.716,-4.026 -2.168,-16.103 -5.884,-12.078 -15.484,-23.226 -19.509,-24.465 -4.026,-1.239 -25.084,-2.477 -30.039,-2.168 -4.955,0.31 -6.813,0.62 -6.813,-5.883 V -312 c 0,0 -0.929,-8.981 1.239,-9.6 2.167,-0.619 30.349,-5.884 43.664,-4.335 13.315,1.548 40.413,8.67 51.794,21.677 11.38,13.006 14.167,19.51 32.284,60.852 C 2.787,-202.065 86.09,0 86.09,0 Z"
       style="fill:#ffffff;fill-opacity:1;fill-rule:nonzero;stroke:none"
       transform="matrix(1.3333333,0,0,-1.3333333,10360.958,262.5248)"
       clip-path="url(#clipPath265)" />
  </g>
</svg>
